<?xml version="1.0" encoding="utf-8"?>
<!-- Generator: Adobe Illustrator 21.1.0, SVG Export Plug-In . SVG Version: 6.00 Build 0)  -->
<svg version="1.1" id="Layer_1" xmlns="http://www.w3.org/2000/svg" xmlns:xlink="http://www.w3.org/1999/xlink" x="0px" y="0px"
	 viewBox="0 0 37 32" style="enable-background:new 0 0 37 32;" xml:space="preserve">
<style type="text/css">
	.st0{fill:#257A2D;}
</style>
<title>newspaper</title>
<path class="st0" d="M18.5,11.2h-6.9v6.9h6.9V11.2z M20.8,22.8v2.3H9.2v-2.3H20.8z M20.8,8.9v11.6H9.2V8.9
	C9.2,8.9,20.8,8.9,20.8,8.9z M32.4,22.8v2.3h-9.3v-2.3H32.4z M32.4,18.2v2.3h-9.3v-2.3C23.1,18.2,32.4,18.2,32.4,18.2z M32.4,13.5
	v2.3h-9.3v-2.3H32.4z M32.4,8.9v2.3h-9.3V8.9C23.1,8.9,32.4,8.9,32.4,8.9z M4.6,26.3V8.9H2.3v17.3c0,0.6,0.5,1.2,1.2,1.2
	S4.6,26.9,4.6,26.3z M34.7,26.3V6.6H6.9v19.7c0,0.4-0.1,0.8-0.2,1.2h26.8C34.2,27.4,34.7,26.9,34.7,26.3z M37,4.3v22
	c0,1.9-1.6,3.5-3.5,3.5H3.5c-1.9,0-3.5-1.6-3.5-3.5V6.6h4.6V4.3L37,4.3L37,4.3z"/>
</svg>
